<svg width="186" height="206" viewBox="0 0 186 206" fill="none" xmlns="http://www.w3.org/2000/svg">
<path d="M62.8079 67.8491V200.063H134.333C134.514 155.991 134.767 66.9822 134.333 63.5142C133.791 59.1793 124.58 46.1747 119.161 39.6725C114.826 34.4706 113.743 17.2756 113.743 9.32835H85.024C83.9403 15.8307 81.231 31.0027 79.0636 39.6725C76.8961 48.3422 67.3233 62.0693 62.8079 67.8491Z" fill="#AEE2DB"/>
<path d="M85.024 9.32835C83.9403 15.8307 81.231 31.0027 79.0636 39.6725C76.8961 48.3422 67.3233 62.0693 62.8079 67.8491V200.063H134.333C134.514 155.991 134.767 66.9822 134.333 63.5142C133.791 59.1793 124.58 46.1747 119.161 39.6725C114.826 34.4706 113.743 17.2756 113.743 9.32835M85.024 9.32835H113.743M85.024 9.32835C85.024 9.32835 79.1962 9.32835 75.462 9.32835M113.743 9.32835H122.899" stroke="black" stroke-width="10" stroke-linecap="round" stroke-linejoin="round"/>
<path d="M76.9985 100.869H119.615M79.8801 116.616H90.9877H116.442M76.9985 132.031H96.72H116.442M90.9877 76.0946H103.229M92.0984 146.144H104.339" stroke="black" stroke-width="10" stroke-linecap="round" stroke-linejoin="round"/>
</svg>
