<svg width="186" height="206" viewBox="0 0 186 206" fill="none" xmlns="http://www.w3.org/2000/svg">
<path d="M105.23 66.1536V198.367H176.756C176.936 154.296 177.189 65.2866 176.756 61.8187C176.214 57.4838 167.002 44.4792 161.583 37.9769C157.249 32.7751 156.165 15.5801 156.165 7.63284H127.446C126.363 14.1352 123.653 29.3072 121.486 37.9769C119.318 46.6467 109.746 60.3738 105.23 66.1536Z" fill="#AEE2DB"/>
<path d="M127.446 7.63284C126.363 14.1352 123.653 29.3072 121.486 37.9769C119.318 46.6467 109.746 60.3738 105.23 66.1536V198.367H176.756C176.936 154.296 177.189 65.2866 176.756 61.8187C176.214 57.4838 167.002 44.4792 161.583 37.9769C157.249 32.7751 156.165 15.5801 156.165 7.63284M127.446 7.63284H156.165M127.446 7.63284C127.446 7.63284 121.619 7.63284 117.884 7.63284M156.165 7.63284H165.321" stroke="black" stroke-width="10" stroke-linecap="round" stroke-linejoin="round"/>
<path d="M119.421 99.1732H162.038M122.302 114.921H133.41H158.864M119.421 130.335H139.142H158.864M133.41 74.3991H145.651M134.521 144.448H146.762" stroke="black" stroke-width="10" stroke-linecap="round" stroke-linejoin="round"/>
<path d="M73.0663 154.413C83.3036 123.439 102.764 54.4693 87.0565 46.7292C79.5985 43.0541 69.9256 59.7661 60.6663 82.8628C56.8748 92.3205 53.1527 102.849 49.6803 113.486C47.7973 119.255 45.9878 125.055 44.2805 130.734C41.7815 139.047 39.5016 147.1 37.5309 154.413C36.6244 157.777 35.7833 160.984 35.0165 163.988C32.6425 177.441 31.1718 202.857 44.2805 196.895C57.3892 190.933 68.9329 166.089 73.0663 154.413Z" fill="#E9C46A"/>
<path d="M60.6663 82.8628C69.9256 59.7661 79.5985 43.0541 87.0565 46.7292C102.764 54.4693 83.3036 123.439 73.0663 154.413C68.9329 166.089 57.3892 190.933 44.2805 196.895C31.1718 202.857 32.6425 177.441 35.0165 163.988C35.7833 160.984 36.6244 157.777 37.5309 154.413M60.6663 82.8628C61.2642 81.3818 82.6078 75.958 78.1242 86.4636C74.5373 94.8681 57.6671 107.98 49.6803 113.486M60.6663 82.8628C56.8748 92.3205 53.1527 102.849 49.6803 113.486M49.6803 113.486C47.7973 119.255 45.9878 125.055 44.2805 130.734M44.2805 130.734C51.2085 128.328 63.8986 125.668 59.2344 134.279C54.5703 142.89 42.822 151.29 37.5309 154.413M44.2805 130.734C41.7815 139.047 39.5016 147.1 37.5309 154.413" stroke="black" stroke-width="9.99987"/>
</svg>
