<svg width="59" height="56" viewBox="0 0 59 56" fill="none" xmlns="http://www.w3.org/2000/svg">
<path d="M34.7412 39.2818C44.8553 28.9606 64.8118 5.8705 53.295 2.6998C47.8266 1.1943 39.1792 6.62871 30.3874 14.2724C26.7874 17.4023 23.1631 20.9027 19.7231 24.4487C17.8576 26.3716 16.0462 28.3079 14.3223 30.2059C11.799 32.984 9.46285 35.6798 7.41814 38.131C6.47755 39.2586 5.59864 40.3344 4.79152 41.3426C1.99215 45.8926 -0.978849 54.586 9.53206 52.9601C20.043 51.3341 30.7177 43.1638 34.7412 39.2818Z" fill="#E9C46A"/>
<path d="M30.3874 14.2724C39.1792 6.62871 47.8266 1.1943 53.295 2.6998C64.8118 5.8705 44.8553 28.9606 34.7412 39.2818C30.7177 43.1638 20.043 51.3341 9.53206 52.9601C-0.97885 54.586 1.99215 45.8926 4.79152 41.3426C5.59864 40.3344 6.47755 39.2586 7.41814 38.131M30.3874 14.2724C30.9544 13.7824 47.7581 12.6082 43.55 16.0762C40.1835 18.8505 26.2627 22.8138 19.7231 24.4487M30.3874 14.2724C26.7874 17.4023 23.1631 20.9027 19.7231 24.4487M19.7231 24.4487C17.8576 26.3716 16.0462 28.3079 14.3223 30.2059M14.3223 30.2059C19.8235 29.6027 29.7734 29.0989 25.5637 31.9093C21.354 34.7197 11.7126 37.2281 7.41814 38.131M14.3223 30.2059C11.799 32.984 9.46285 35.6798 7.41814 38.131" stroke="black" stroke-width="4"/>
</svg>
