<svg width="523" height="467" viewBox="0 0 523 467" fill="none" xmlns="http://www.w3.org/2000/svg">
<path d="M208.617 70.7618C270.439 57.5547 309.534 107.148 309.534 107.148M309.534 107.148L309.799 92.4811M309.534 107.148L294.211 104.064" stroke="#4D4D4D" stroke-width="4"/>
<path d="M335.422 303.605C324.026 348.388 278.858 357.918 278.858 357.918M278.858 357.918L288.381 362.848M278.858 357.918L285.848 348.88" stroke="#4D4D4D" stroke-width="4"/>
<path d="M281.767 257.398C287.5 244.498 284.156 166.022 281.767 128.397C365.08 123.619 529.557 115.676 520.956 122.126C512.356 128.576 517.373 214.995 520.956 257.398C438.838 262.773 276.033 270.298 281.767 257.398Z" fill="white" stroke="#4D4D4D" stroke-width="3"/>
<path d="M335.422 169.703V213.205H358.957C359.016 198.704 359.099 169.417 358.957 168.276C358.778 166.85 355.747 162.571 353.965 160.432C352.538 158.72 352.182 153.062 352.182 150.447H342.732C342.376 152.587 341.484 157.579 340.771 160.432C340.058 163.284 336.908 167.801 335.422 169.703Z" fill="#E76F51"/>
<path d="M342.732 150.447C342.376 152.587 341.484 157.579 340.771 160.432C340.058 163.284 336.908 167.801 335.422 169.703V213.205H358.957C359.016 198.704 359.099 169.417 358.957 168.276C358.778 166.85 355.747 162.571 353.965 160.432C352.538 158.72 352.182 153.062 352.182 150.447M342.732 150.447H352.182M342.732 150.447C342.732 150.447 340.815 150.447 339.586 150.447M352.182 150.447H355.194" stroke="#4D4D4D" stroke-width="3" stroke-linecap="round" stroke-linejoin="round"/>
<path d="M312.812 188.455C313.266 195.916 325.878 203.336 332.127 206.114C332.92 205.916 333.956 205.599 335.094 205.17C338.313 203.955 342.34 201.841 343.943 198.959C346.654 194.082 342.668 184.618 340.886 180.173C339.461 176.617 336.39 176.547 335.032 176.956C334.836 174.813 333.958 169.643 332.019 166.111C330.08 162.579 326.229 163.881 324.545 164.974C322.762 160.677 317.867 152.576 312.549 154.545C307.231 156.515 310.328 164.966 312.541 168.946C312.012 168.228 310.328 167.609 307.822 170.872C305.315 174.136 311.764 181.403 315.302 184.628C314.45 184.222 312.759 184.419 312.812 188.455Z" fill="#2A9D8F"/>
<path d="M335.094 205.17C338.313 203.955 342.34 201.841 343.943 198.959C346.654 194.082 342.668 184.618 340.886 180.173C339.461 176.617 336.39 176.547 335.032 176.956C334.836 174.813 333.958 169.643 332.019 166.111C330.08 162.579 326.229 163.881 324.545 164.974C322.762 160.677 317.867 152.576 312.549 154.545C307.231 156.515 310.328 164.966 312.541 168.946C312.012 168.228 310.328 167.609 307.822 170.872C305.315 174.136 311.764 181.403 315.302 184.628C314.45 184.222 312.759 184.419 312.812 188.455C313.266 195.916 325.878 203.336 332.127 206.114C332.92 205.916 333.956 205.599 335.094 205.17ZM335.094 205.17L331.439 196.533M318.76 166.578L324.405 179.914M325.976 183.628L324.405 179.914M325.976 183.628L331.439 196.533M325.976 183.628L327.217 176.956L328.458 170.284M324.405 179.914L315.317 174.651M331.439 196.533L321.358 189.245" stroke="#4D4D4D" stroke-width="3" stroke-linecap="round" stroke-linejoin="round"/>
<path d="M378.017 185.372C383.108 169.97 391.337 138.203 383.526 134.354C379.817 132.526 375.007 140.837 370.403 152.322C368.518 157.025 366.667 162.26 364.94 167.55C364.004 170.418 363.104 173.303 362.255 176.127C361.012 180.261 359.878 184.265 358.898 187.902C358.448 189.574 358.029 191.169 357.648 192.663L370.677 206.299L378.017 185.372Z" fill="#E9C46A"/>
<path d="M370.403 152.322C375.007 140.837 379.817 132.526 383.526 134.354C391.337 138.203 383.108 169.97 378.017 185.372L370.677 206.299L357.648 192.663C358.029 191.169 358.448 189.574 358.898 187.902M370.403 152.322C370.7 151.585 381.314 148.888 379.084 154.112C377.301 158.292 368.912 164.812 364.94 167.55M370.403 152.322C368.518 157.025 366.667 162.26 364.94 167.55M364.94 167.55C364.004 170.418 363.104 173.303 362.255 176.127M362.255 176.127C365.7 174.93 372.01 173.608 369.691 177.89C367.372 182.171 361.53 186.348 358.898 187.902M362.255 176.127C361.012 180.261 359.878 184.265 358.898 187.902" stroke="#4D4D4D" stroke-width="3"/>
<path d="M323.394 195.063L315.875 190.587L319.995 213.93L318.444 234.613L315.875 248.789H374.391L370.366 216.224L374.391 190.587L366.705 195.063L359.455 189.471L352.205 195.063L344.954 189.471L337.704 195.063L330.744 189.471L323.394 195.063Z" fill="#E3D39C" stroke="#4D4D4D" stroke-width="3" stroke-linejoin="round"/>
<path d="M386.194 211.451C385.366 211.451 384.694 212.123 384.694 212.951C384.694 213.78 385.366 214.451 386.194 214.451V211.451ZM408.153 211.451H386.194V214.451H408.153V211.451Z" fill="#4D4D4D"/>
<path d="M386.194 217.63C385.366 217.63 384.694 218.301 384.694 219.13C384.694 219.958 385.366 220.63 386.194 220.63V217.63ZM408.153 217.63H386.194V220.63H408.153V217.63Z" fill="#4D4D4D"/>
<path d="M480.233 203.05L464.16 189.471L439.219 207.207C435.839 209.621 426.602 216.792 423.886 220.565L439.219 234.642C441.251 232.332 449.831 225.892 453.075 223.557L480.233 203.05Z" fill="#97EC79"/>
<path d="M423.146 221.617C423.365 221.297 423.613 220.943 423.886 220.565M423.886 220.565C426.602 216.792 435.839 209.621 439.219 207.207L464.16 189.471L480.233 203.05L453.075 223.557C449.831 225.892 441.251 232.332 439.219 234.642L423.886 220.565Z" stroke="#4D4D4D" stroke-width="3"/>
<path d="M457.605 213.127C457.853 212.916 458.077 212.692 458.277 212.454C458.481 212.212 458.656 211.961 458.802 211.7L460.549 213.214C460.316 213.533 460.054 213.848 459.766 214.162C459.477 214.476 459.166 214.774 458.834 215.056C458.208 215.587 457.559 215.989 456.885 216.262C456.212 216.535 455.534 216.662 454.852 216.644C454.171 216.616 453.504 216.435 452.853 216.1C452.197 215.76 451.574 215.243 450.984 214.548L448.803 211.98C448.188 211.255 447.755 210.53 447.505 209.803C447.259 209.071 447.179 208.353 447.264 207.649C447.35 206.945 447.587 206.269 447.977 205.622C448.363 204.97 448.888 204.361 449.553 203.796C449.846 203.548 450.155 203.324 450.481 203.124C450.807 202.915 451.144 202.723 451.491 202.548L452.708 204.525C452.452 204.615 452.183 204.741 451.902 204.902C451.625 205.06 451.371 205.238 451.138 205.436C450.77 205.748 450.485 206.08 450.28 206.433C450.072 206.781 449.956 207.148 449.934 207.534C449.913 207.911 449.991 208.31 450.169 208.731C450.347 209.152 450.635 209.596 451.031 210.062L453.224 212.645C453.612 213.102 453.995 213.442 454.374 213.667C454.749 213.887 455.118 214.005 455.482 214.021C455.841 214.032 456.198 213.959 456.552 213.803C456.907 213.647 457.258 213.422 457.605 213.127ZM453.175 207.549L454.111 208.651L448.126 213.733L447.191 212.631L453.175 207.549ZM454.914 209.596L455.849 210.697L449.865 215.78L448.929 214.678L454.914 209.596Z" fill="#4D4D4D"/>
<path d="M490.209 205.853L474.136 192.274L449.195 210.01C445.815 212.424 436.579 219.596 433.862 223.368L449.195 237.445C451.227 235.136 459.808 228.696 463.051 226.36L490.209 205.853Z" fill="#97EC79"/>
<path d="M433.122 224.421C433.341 224.1 433.589 223.747 433.862 223.368M433.862 223.368C436.579 219.596 445.815 212.424 449.195 210.01L474.136 192.274L490.209 205.853L463.051 226.36C459.808 228.696 451.227 235.136 449.195 237.445L433.862 223.368Z" stroke="#4D4D4D" stroke-width="3"/>
<path d="M467.582 215.931C467.83 215.72 468.054 215.496 468.253 215.258C468.458 215.016 468.633 214.765 468.779 214.504L470.526 216.018C470.292 216.336 470.031 216.652 469.742 216.966C469.453 217.279 469.142 217.577 468.81 217.86C468.185 218.391 467.535 218.793 466.862 219.066C466.188 219.339 465.511 219.466 464.829 219.447C464.147 219.42 463.481 219.238 462.829 218.903C462.173 218.564 461.55 218.046 460.96 217.352L458.779 214.784C458.164 214.059 457.731 213.333 457.481 212.606C457.236 211.875 457.156 211.157 457.241 210.453C457.326 209.748 457.563 209.073 457.953 208.425C458.339 207.773 458.864 207.165 459.529 206.6C459.822 206.351 460.131 206.127 460.457 205.927C460.784 205.719 461.12 205.527 461.467 205.352L462.685 207.328C462.428 207.418 462.159 207.544 461.878 207.706C461.602 207.864 461.347 208.042 461.114 208.24C460.747 208.551 460.461 208.884 460.257 209.237C460.048 209.585 459.933 209.952 459.911 210.338C459.889 210.715 459.967 211.114 460.146 211.535C460.324 211.956 460.611 212.399 461.007 212.866L463.201 215.449C463.588 215.905 463.972 216.246 464.351 216.471C464.725 216.691 465.094 216.809 465.458 216.824C465.817 216.835 466.174 216.763 466.529 216.607C466.883 216.451 467.234 216.226 467.582 215.931ZM463.152 210.353L464.087 211.454L458.103 216.537L457.167 215.435L463.152 210.353ZM464.89 212.4L465.826 213.501L459.841 218.584L458.906 217.482L464.89 212.4Z" fill="#4D4D4D"/>
<path d="M501.848 207.382L485.775 193.803L460.834 211.539C457.454 213.953 448.218 221.124 445.501 224.897L460.834 238.974C462.866 236.665 471.447 230.225 474.69 227.889L501.848 207.382Z" fill="#97EC79"/>
<path d="M444.761 225.949C444.98 225.629 445.228 225.276 445.501 224.897M445.501 224.897C448.218 221.124 457.454 213.953 460.834 211.539L485.775 193.803L501.848 207.382L474.69 227.889C471.447 230.225 462.866 236.665 460.834 238.974L445.501 224.897Z" stroke="#4D4D4D" stroke-width="3"/>
<path d="M479.221 217.459C479.469 217.249 479.693 217.024 479.892 216.787C480.097 216.545 480.272 216.293 480.418 216.033L482.165 217.547C481.931 217.865 481.67 218.181 481.381 218.495C481.092 218.808 480.782 219.106 480.449 219.389C479.824 219.92 479.175 220.322 478.501 220.595C477.828 220.868 477.15 220.995 476.468 220.976C475.786 220.948 475.12 220.767 474.468 220.432C473.812 220.092 473.189 219.575 472.599 218.88L470.418 216.312C469.803 215.588 469.37 214.862 469.12 214.135C468.875 213.404 468.795 212.686 468.88 211.981C468.965 211.277 469.203 210.601 469.593 209.954C469.978 209.302 470.504 208.694 471.169 208.129C471.461 207.88 471.771 207.656 472.096 207.456C472.423 207.247 472.76 207.055 473.106 206.88L474.324 208.857C474.067 208.947 473.798 209.073 473.517 209.235C473.241 209.392 472.986 209.57 472.753 209.768C472.386 210.08 472.1 210.413 471.896 210.765C471.687 211.113 471.572 211.48 471.55 211.867C471.528 212.244 471.607 212.642 471.785 213.063C471.963 213.484 472.25 213.928 472.646 214.395L474.84 216.978C475.228 217.434 475.611 217.775 475.99 218C476.364 218.22 476.734 218.337 477.097 218.353C477.457 218.364 477.813 218.291 478.168 218.136C478.522 217.98 478.873 217.754 479.221 217.459ZM474.791 211.881L475.727 212.983L469.742 218.065L468.806 216.964L474.791 211.881ZM476.529 213.928L477.465 215.03L471.48 220.112L470.545 219.011L476.529 213.928Z" fill="#4D4D4D"/>
<path d="M391.227 272.497V264.521H410.65V272.497H439.785V280.029H363.115V272.497H391.227Z" stroke="#4D4D4D" stroke-width="3"/>
<path d="M2.12136 157.473C6.83782 142.907 4.08655 54.2992 2.12136 11.8158C70.6576 6.42113 205.962 -2.54758 198.887 4.73528C191.812 12.0181 195.939 109.595 198.887 157.473C131.333 163.542 -2.5951 172.039 2.12136 157.473Z" fill="white" stroke="#4D4D4D" stroke-width="3"/>
<rect x="47.5256" y="26.8567" width="15.3707" height="14.0954" rx="4.80394" stroke="#4D4D4D" stroke-width="2.22765"/>
<path d="M51.7765 33.7503C51.3791 33.2807 50.6763 33.2222 50.2067 33.6196C49.7372 34.0169 49.6786 34.7197 50.076 35.1893L51.7765 33.7503ZM53.257 38.7318L52.3023 38.158L53.257 38.7318ZM50.076 35.1893C50.5307 35.7267 51.1824 36.5699 51.6604 37.344C51.9025 37.7362 52.0718 38.0657 52.1578 38.3043C52.178 38.3603 52.1908 38.4039 52.1986 38.436C52.2066 38.4687 52.2074 38.4819 52.2071 38.4784C52.2069 38.4756 52.2044 38.4431 52.2137 38.3897C52.2233 38.3344 52.2467 38.2506 52.3023 38.158L54.2117 39.3055C54.4276 38.9462 54.4487 38.5711 54.4281 38.3063C54.4071 38.0347 54.3346 37.7741 54.2536 37.5492C54.0913 37.0987 53.8302 36.618 53.5558 36.1737C53.0009 35.2749 52.2753 34.3398 51.7765 33.7503L50.076 35.1893ZM52.3023 38.158C52.2714 38.2094 52.3028 38.1518 52.3546 38.0869C52.3658 38.0729 52.3943 38.0377 52.4354 37.9965C52.4566 37.9758 52.5109 37.9275 52.5444 37.9007C52.5984 37.8617 52.7536 37.7738 52.8571 37.7319C53.0499 37.6836 53.5488 37.7189 53.825 37.847C54.0437 38.0312 54.2771 38.4252 54.3201 38.594C54.3628 38.841 54.3062 39.0406 54.306 39.0415C54.285 39.129 54.2572 39.1946 54.2563 39.1969C54.2488 39.2153 54.2427 39.2285 54.2409 39.2326C54.2367 39.2417 54.2543 39.2054 54.3129 39.0966C54.4165 38.9041 54.5995 38.5744 54.8433 38.1508C55.331 37.3039 56.0513 36.1006 56.8517 34.8912C57.658 33.6726 58.5197 32.4873 59.2898 31.6526C59.6784 31.2315 60.0038 30.9438 60.2528 30.7824C60.5426 30.5945 60.5225 30.7079 60.3247 30.6568L60.8824 28.5001C60.1454 28.3095 59.4747 28.632 59.041 28.9132C58.5664 29.2208 58.0953 29.6622 57.6526 30.142C56.7603 31.109 55.8208 32.4122 54.9939 33.6619C54.161 34.9207 53.416 36.1654 52.9128 37.0392C52.6613 37.4761 52.4675 37.8249 52.3513 38.0408C52.3 38.1362 52.2469 38.2365 52.2162 38.3036C52.2109 38.315 52.2023 38.3342 52.1928 38.3574C52.19 38.3645 52.1609 38.4336 52.1394 38.5234C52.1389 38.5254 52.0822 38.7258 52.125 38.9733C52.168 39.1424 52.4015 39.5365 52.6203 39.7208C52.8967 39.849 53.3958 39.8843 53.5888 39.8359C53.6925 39.7939 53.848 39.7059 53.9023 39.6666C53.9361 39.6396 53.9908 39.5909 54.0124 39.5699C54.0542 39.5279 54.0837 39.4916 54.0961 39.476C54.1572 39.3995 54.2095 39.3092 54.2117 39.3055L52.3023 38.158Z" fill="#4D4D4D"/>
<line y1="-1.07051" x2="30.7601" y2="-1.07051" transform="matrix(-1 0 0 1 111.314 28.7277)" stroke="#4D4D4D" stroke-width="2.14102"/>
<line y1="-1.07051" x2="35.2616" y2="-1.07051" transform="matrix(-1 0 0 1 112.214 33.6793)" stroke="#4D4D4D" stroke-width="2.14102"/>
<line y1="-1.07051" x2="23.7078" y2="-1.07051" transform="matrix(-1 0 0 1 107.788 39.0811)" stroke="#4D4D4D" stroke-width="2.14102"/>
<path d="M127.474 33.0922C125.075 35.996 127.168 43.0662 128.514 46.2383C128.874 46.4379 129.365 46.6778 129.932 46.9111C131.535 47.5708 133.745 48.1772 135.326 47.6668C138.002 46.8034 139.789 41.9468 140.661 39.697C141.359 37.8972 140.252 36.8152 139.612 36.4992C140.276 35.6422 141.731 33.4362 142.232 31.4686C142.733 29.501 140.866 28.656 139.87 28.4794C140.691 26.2839 141.674 21.6169 139.039 20.5132C136.403 19.4096 134.637 23.5871 134.083 25.8139C134.135 25.3677 133.728 24.5604 131.683 24.9005C129.637 25.2406 129.513 30.1344 129.707 32.5389C129.533 32.0964 128.842 31.5877 127.474 33.0922Z" fill="#E76F51"/>
<path d="M129.932 46.9111C131.535 47.5708 133.745 48.1772 135.326 47.6668C138.002 46.8034 139.789 41.9468 140.661 39.697C141.359 37.8972 140.252 36.8152 139.612 36.4992C140.276 35.6422 141.731 33.4362 142.232 31.4686C142.733 29.501 140.866 28.656 139.87 28.4794C140.691 26.2839 141.674 21.6169 139.039 20.5132C136.403 19.4096 134.637 23.5871 134.083 25.8139C134.135 25.3677 133.728 24.5604 131.683 24.9005C129.637 25.2406 129.513 30.1344 129.707 32.5389C129.533 32.0964 128.842 31.5877 127.474 33.0922C125.075 35.996 127.168 43.0662 128.514 46.2383C128.874 46.4379 129.365 46.6778 129.932 46.9111ZM129.932 46.9111L131.556 42.4732M137.188 27.0808L134.68 33.9336M133.982 35.8419L134.68 33.9336M133.982 35.8419L131.556 42.4732M133.982 35.8419L136.733 33.8115L139.485 31.781M134.68 33.9336L133.144 28.8699M131.556 42.4732L130.349 36.3223" stroke="#4D4D4D" stroke-width="3" stroke-linecap="round" stroke-linejoin="round"/>
<line x1="157.577" y1="51.7226" x2="43.8233" y2="51.7226" stroke="#4D4D4D"/>
<rect x="47.5256" y="62.1843" width="15.3707" height="14.0954" rx="4.80394" stroke="#4D4D4D" stroke-width="2.22765"/>
<line y1="-1.07051" x2="30.7601" y2="-1.07051" transform="matrix(-1 0 0 1 111.314 64.0553)" stroke="#4D4D4D" stroke-width="2.14102"/>
<line y1="-1.07051" x2="35.2616" y2="-1.07051" transform="matrix(-1 0 0 1 112.214 69.007)" stroke="#4D4D4D" stroke-width="2.14102"/>
<line y1="-1.07051" x2="23.7078" y2="-1.07051" transform="matrix(-1 0 0 1 107.788 74.4087)" stroke="#4D4D4D" stroke-width="2.14102"/>
<path d="M125.157 63.2739V84.653H136.722C136.751 77.5267 136.792 63.1337 136.722 62.573C136.635 61.872 135.145 59.7692 134.269 58.7177C133.568 57.8766 133.393 55.0961 133.393 53.8111H128.749C128.574 54.8625 128.136 57.3158 127.785 58.7177C127.435 60.1196 125.887 62.3393 125.157 63.2739Z" fill="#AEE2DB"/>
<path d="M128.749 53.8111C128.574 54.8625 128.136 57.3158 127.785 58.7177C127.435 60.1196 125.887 62.3393 125.157 63.2739V84.653H136.722C136.751 77.5267 136.792 63.1337 136.722 62.573C136.635 61.872 135.145 59.7692 134.269 58.7177C133.568 57.8766 133.393 55.0961 133.393 53.8111M128.749 53.8111H133.393M128.749 53.8111C128.749 53.8111 127.807 53.8111 127.203 53.8111M133.393 53.8111H134.873" stroke="#4D4D4D" stroke-width="3" stroke-linecap="round" stroke-linejoin="round"/>
<line x1="157.577" y1="87.7415" x2="43.8233" y2="87.7415" stroke="#4D4D4D"/>
<rect x="47.5256" y="94.4502" width="15.3707" height="14.0954" rx="4.80394" stroke="#4D4D4D" stroke-width="2.22765"/>
<path d="M51.7765 101.344C51.3792 100.874 50.6764 100.816 50.2068 101.213C49.7372 101.61 49.6786 102.313 50.076 102.783L51.7765 101.344ZM53.257 106.325L52.3023 105.752L53.257 106.325ZM50.076 102.783C50.5307 103.32 51.1824 104.163 51.6604 104.938C51.9026 105.33 52.0719 105.659 52.1578 105.898C52.178 105.954 52.1909 105.997 52.1987 106.03C52.2066 106.062 52.2074 106.075 52.2072 106.072C52.207 106.069 52.2045 106.037 52.2137 105.983C52.2233 105.928 52.2467 105.844 52.3023 105.752L54.2117 106.899C54.4276 106.54 54.4487 106.165 54.4282 105.9C54.4071 105.628 54.3346 105.368 54.2536 105.143C54.0913 104.692 53.8302 104.212 53.5559 103.767C53.0009 102.868 52.2753 101.933 51.7765 101.344L50.076 102.783ZM52.3023 105.752C52.2715 105.803 52.3029 105.745 52.3546 105.68C52.3658 105.666 52.3943 105.631 52.4354 105.59C52.4566 105.569 52.5109 105.521 52.5444 105.494C52.5984 105.455 52.7536 105.367 52.8571 105.325C53.0499 105.277 53.5489 105.312 53.825 105.441C54.0437 105.625 54.2771 106.019 54.3201 106.188C54.3628 106.435 54.3062 106.634 54.306 106.635C54.2851 106.723 54.2572 106.788 54.2563 106.79C54.2488 106.809 54.2428 106.822 54.2409 106.826C54.2367 106.835 54.2544 106.799 54.3129 106.69C54.4165 106.498 54.5995 106.168 54.8434 105.744C55.331 104.897 56.0514 103.694 56.8517 102.485C57.658 101.266 58.5197 100.081 59.2898 99.2462C59.6784 98.8251 60.0038 98.5373 60.2528 98.3759C60.5427 98.188 60.5225 98.3015 60.3247 98.2503L60.8825 96.0936C60.1455 95.903 59.4747 96.2255 59.041 96.5067C58.5664 96.8143 58.0953 97.2558 57.6527 97.7355C56.7603 98.7026 55.8208 100.006 54.9939 101.255C54.161 102.514 53.416 103.759 52.9129 104.633C52.6613 105.07 52.4675 105.418 52.3514 105.634C52.3 105.73 52.247 105.83 52.2162 105.897C52.211 105.909 52.2023 105.928 52.1929 105.951C52.19 105.958 52.1609 106.027 52.1394 106.117C52.1389 106.119 52.0822 106.319 52.125 106.567C52.1681 106.736 52.4016 107.13 52.6204 107.314C52.8967 107.442 53.3958 107.478 53.5888 107.429C53.6926 107.387 53.848 107.299 53.9023 107.26C53.9361 107.233 53.9908 107.184 54.0124 107.163C54.0543 107.121 54.0837 107.085 54.0961 107.07C54.1572 106.993 54.2095 106.903 54.2117 106.899L52.3023 105.752Z" fill="#4D4D4D"/>
<line y1="-1.07051" x2="30.7601" y2="-1.07051" transform="matrix(-1 0 0 1 111.314 96.3212)" stroke="#4D4D4D" stroke-width="2.14102"/>
<line y1="-1.07051" x2="35.2616" y2="-1.07051" transform="matrix(-1 0 0 1 112.214 101.273)" stroke="#4D4D4D" stroke-width="2.14102"/>
<line y1="-1.07051" x2="23.7078" y2="-1.07051" transform="matrix(-1 0 0 1 107.788 106.675)" stroke="#4D4D4D" stroke-width="2.14102"/>
<path d="M140.155 106.78C144.809 102.03 153.992 91.4047 148.693 89.9457C146.176 89.2529 142.197 91.7536 138.151 95.271C136.495 96.7113 134.827 98.322 133.244 99.9538C132.386 100.839 131.552 101.73 130.759 102.603C129.598 103.881 128.523 105.122 127.582 106.25C127.149 106.769 126.744 107.264 126.373 107.728C125.085 109.822 123.718 113.822 128.555 113.074C133.391 112.326 138.303 108.566 140.155 106.78Z" fill="#E9C46A"/>
<path d="M138.151 95.271C142.197 91.7536 146.176 89.2529 148.693 89.9457C153.992 91.4047 144.809 102.03 140.155 106.78C138.303 108.566 133.391 112.326 128.555 113.074C123.718 113.822 125.085 109.822 126.373 107.728C126.744 107.264 127.149 106.769 127.582 106.25M138.151 95.271C138.412 95.0455 146.145 94.5052 144.208 96.101C142.659 97.3777 136.253 99.2015 133.244 99.9538M138.151 95.271C136.495 96.7113 134.827 98.322 133.244 99.9538M133.244 99.9538C132.386 100.839 131.552 101.73 130.759 102.603M130.759 102.603C133.29 102.326 137.869 102.094 135.932 103.387C133.995 104.68 129.558 105.834 127.582 106.25M130.759 102.603C129.598 103.881 128.523 105.122 127.582 106.25" stroke="#4D4D4D" stroke-width="3"/>
<line x1="157.577" y1="116.254" x2="43.8233" y2="116.254" stroke="#4D4D4D"/>
<rect x="47.5256" y="126.716" width="15.3707" height="14.0954" rx="4.80394" stroke="#4D4D4D" stroke-width="2.22765"/>
<path d="M51.7765 133.61C51.3792 133.14 50.6764 133.082 50.2068 133.479C49.7372 133.876 49.6786 134.579 50.076 135.049L51.7765 133.61ZM53.257 138.591L52.3023 138.017L53.257 138.591ZM50.076 135.049C50.5307 135.586 51.1824 136.429 51.6604 137.203C51.9026 137.596 52.0719 137.925 52.1578 138.164C52.178 138.22 52.1909 138.263 52.1987 138.295C52.2066 138.328 52.2074 138.341 52.2072 138.338C52.207 138.335 52.2045 138.303 52.2137 138.249C52.2233 138.194 52.2467 138.11 52.3023 138.017L54.2117 139.165C54.4276 138.806 54.4487 138.43 54.4282 138.166C54.4071 137.894 54.3346 137.633 54.2536 137.409C54.0913 136.958 53.8302 136.477 53.5559 136.033C53.0009 135.134 52.2753 134.199 51.7765 133.61L50.076 135.049ZM52.3023 138.017C52.2715 138.069 52.3029 138.011 52.3546 137.946C52.3658 137.932 52.3943 137.897 52.4354 137.856C52.4566 137.835 52.5109 137.787 52.5444 137.76C52.5984 137.721 52.7536 137.633 52.8571 137.591C53.0499 137.543 53.5489 137.578 53.825 137.706C54.0437 137.891 54.2771 138.285 54.3201 138.453C54.3628 138.7 54.3062 138.9 54.306 138.901C54.2851 138.988 54.2572 139.054 54.2563 139.056C54.2488 139.075 54.2428 139.088 54.2409 139.092C54.2367 139.101 54.2544 139.065 54.3129 138.956C54.4165 138.763 54.5995 138.434 54.8434 138.01C55.331 137.163 56.0514 135.96 56.8517 134.751C57.658 133.532 58.5197 132.347 59.2898 131.512C59.6784 131.091 60.0038 130.803 60.2528 130.642C60.5427 130.454 60.5225 130.567 60.3247 130.516L60.8825 128.359C60.1455 128.169 59.4747 128.491 59.041 128.773C58.5664 129.08 58.0953 129.522 57.6527 130.001C56.7603 130.968 55.8208 132.272 54.9939 133.521C54.161 134.78 53.416 136.025 52.9129 136.899C52.6613 137.335 52.4675 137.684 52.3514 137.9C52.3 137.996 52.247 138.096 52.2162 138.163C52.211 138.174 52.2023 138.194 52.1929 138.217C52.19 138.224 52.1609 138.293 52.1394 138.383C52.1389 138.385 52.0822 138.585 52.125 138.833C52.1681 139.002 52.4016 139.396 52.6204 139.58C52.8967 139.708 53.3958 139.744 53.5888 139.695C53.6926 139.653 53.848 139.565 53.9023 139.526C53.9361 139.499 53.9908 139.45 54.0124 139.429C54.0543 139.387 54.0837 139.351 54.0961 139.335C54.1572 139.259 54.2095 139.169 54.2117 139.165L52.3023 138.017Z" fill="#4D4D4D"/>
<line y1="-1.07051" x2="30.7601" y2="-1.07051" transform="matrix(-1 0 0 1 111.314 128.587)" stroke="#4D4D4D" stroke-width="2.14102"/>
<line y1="-1.07051" x2="35.2616" y2="-1.07051" transform="matrix(-1 0 0 1 112.214 133.539)" stroke="#4D4D4D" stroke-width="2.14102"/>
<line y1="-1.07051" x2="23.7078" y2="-1.07051" transform="matrix(-1 0 0 1 107.788 138.94)" stroke="#4D4D4D" stroke-width="2.14102"/>
<path d="M125.157 127.806V149.185H136.722C136.751 142.058 136.792 127.665 136.722 127.105C136.635 126.404 135.145 124.301 134.269 123.249C133.568 122.408 133.393 119.628 133.393 118.343H128.749C128.574 119.394 128.136 121.848 127.785 123.249C127.435 124.651 125.887 126.871 125.157 127.806Z" fill="#E76F51"/>
<path d="M128.749 118.343C128.574 119.394 128.136 121.848 127.785 123.249C127.435 124.651 125.887 126.871 125.157 127.806V149.185H136.722C136.751 142.058 136.792 127.665 136.722 127.105C136.635 126.404 135.145 124.301 134.269 123.249C133.568 122.408 133.393 119.628 133.393 118.343M128.749 118.343H133.393M128.749 118.343C128.749 118.343 127.807 118.343 127.203 118.343M133.393 118.343H134.873" stroke="#4D4D4D" stroke-width="3" stroke-linecap="round" stroke-linejoin="round"/>
<line x1="69.3841" y1="19.1747" x2="69.3841" y2="149.185" stroke="#4D4D4D"/>
<path d="M88.1292 173.491V165.515H107.552V173.491H136.687V181.024H60.0169V173.491H88.1292Z" stroke="#4D4D4D" stroke-width="3"/>
<path d="M68.8841 333.394H87.1869M87.1869 333.394H115.383V376.43M87.1869 333.394V463.987M115.383 376.43H68.8841M115.383 376.43V420.209M115.383 420.209V463.987H68.8841M115.383 420.209H68.8841" stroke="#6A6A6A" stroke-width="5.77658"/>
<path d="M149.881 356.194C148.526 358.323 137.11 376.124 139.238 377.092C140.941 377.866 156.072 384.638 163.425 387.928M149.881 356.194V373.802M149.881 356.194L145.237 371.674L149.881 373.802M149.881 396.054C154.008 409.147 162.883 436.688 165.36 442.106M149.881 396.054C144.076 414.823 140.593 421.015 125.307 433.205M149.881 396.054V373.802M149.881 373.802C150.964 373.957 163.748 379.156 170.004 381.736" stroke="#6A6A6A" stroke-width="5.77658"/>
<path d="M155.298 339.36C154.279 339.297 153.051 339.016 152.127 339.597C150.692 340.499 150.267 342.548 150.203 344.101C150.14 345.625 150.581 347.752 152.17 348.412C154.193 349.251 156.418 348.331 157.964 346.971C159.882 345.285 160.007 342.812 159.168 340.521C158.337 338.25 156.477 337.461 154.46 338.973C152.869 340.167 151.705 342.731 153.041 344.52C153.422 345.03 154.103 345.097 153.751 344.391" stroke="#6A6A6A" stroke-width="9.62763" stroke-linecap="round"/>
<path d="M163.425 390.443C163.598 390.789 165.015 394.142 166.964 398.79M166.964 398.79L177.937 399.388M166.964 398.79C168.579 402.642 170.561 407.384 172.504 412.04M177.937 399.388L187.627 423.844M177.937 399.388L190.668 400.082M187.627 423.844L198.723 422.429M187.627 423.844L182.782 424.461M198.723 422.429L190.668 400.082M198.723 422.429L208.067 421.239M190.668 400.082L201.941 400.696M208.067 421.239L217.41 420.048L219.046 407.095M208.067 421.239L201.941 400.696M201.941 400.696L219.732 401.666L219.046 407.095M172.504 412.04C174.503 416.83 176.461 421.53 177.937 425.079L182.782 424.461M172.504 412.04L219.046 407.095M182.782 424.461L176.583 435.914H215.475" stroke="#6A6A6A" stroke-width="5.77658"/>
<path d="M182.001 440.751V441.138" stroke="#6A6A6A" stroke-width="9.62763" stroke-linecap="round"/>
<path d="M209.67 441.526C209.794 441.664 209.809 441.748 209.864 441.913" stroke="#6A6A6A" stroke-width="9.62763" stroke-linecap="round"/>
</svg>
