<svg width="28" height="35" viewBox="0 0 28 35" fill="none" xmlns="http://www.w3.org/2000/svg">
<path d="M11.6808 10.8615V23.2522H18.3839C18.4009 19.122 18.4246 10.7803 18.3839 10.4553C18.3332 10.049 17.4699 8.83029 16.9621 8.22092C16.5558 7.73342 16.4543 6.12196 16.4543 5.37717H13.7628C13.6613 5.98654 13.4074 7.40842 13.2042 8.22092C13.0011 9.03342 12.104 10.3199 11.6808 10.8615Z" fill="#E76F51"/>
<path d="M13.7628 5.37717C13.6613 5.98654 13.4074 7.40842 13.2042 8.22092C13.0011 9.03342 12.104 10.3199 11.6808 10.8615V23.2522H18.3839C18.4009 19.122 18.4246 10.7803 18.3839 10.4553C18.3332 10.049 17.4699 8.83029 16.9621 8.22092C16.5558 7.73342 16.4543 6.12196 16.4543 5.37717M13.7628 5.37717H16.4543M13.7628 5.37717C13.7628 5.37717 13.2167 5.37717 12.8667 5.37717M16.4543 5.37717H17.3123" stroke="black" stroke-width="1.41633" stroke-linecap="round" stroke-linejoin="round"/>
<path d="M5.24091 16.2027C5.37007 18.3277 8.96224 20.4413 10.7422 21.2324C10.968 21.1759 11.2633 21.0857 11.5874 20.9634C12.5041 20.6175 13.6513 20.0153 14.1077 19.1944C14.88 17.8054 13.7445 15.1098 13.237 13.8437C12.8311 12.8309 11.9564 12.8109 11.5698 12.9276C11.5137 12.3171 11.2637 10.8445 10.7115 9.83847C10.1593 8.83242 9.06222 9.20335 8.58271 9.51457C8.07489 8.29081 6.68056 5.9835 5.16587 6.54438C3.65119 7.10526 4.5332 9.51248 5.16354 10.646C5.01293 10.4416 4.53327 10.2651 3.81946 11.1947C3.10564 12.1243 4.94235 14.194 5.94992 15.1126C5.70727 14.997 5.22574 15.0533 5.24091 16.2027Z" fill="#2A9D8F"/>
<path d="M11.5874 20.9634C12.5041 20.6175 13.6513 20.0153 14.1077 19.1944C14.88 17.8054 13.7445 15.1098 13.237 13.8437C12.8311 12.8309 11.9564 12.8109 11.5698 12.9276C11.5137 12.3171 11.2637 10.8445 10.7115 9.83847C10.1593 8.83242 9.06222 9.20335 8.58271 9.51457C8.07489 8.29081 6.68056 5.9835 5.16587 6.54438C3.65119 7.10526 4.5332 9.51248 5.16354 10.646C5.01293 10.4416 4.53327 10.2651 3.81946 11.1947C3.10564 12.1243 4.94235 14.194 5.94992 15.1126C5.70727 14.997 5.22574 15.0533 5.24091 16.2027C5.37007 18.3277 8.96224 20.4413 10.7422 21.2324C10.968 21.1759 11.2633 21.0857 11.5874 20.9634ZM11.5874 20.9634L10.5462 18.5035M6.93489 9.97169L8.54267 13.7701M8.99041 14.8279L8.54267 13.7701M8.99041 14.8279L10.5462 18.5035M8.99041 14.8279L9.3438 12.9276L9.69719 11.0273M8.54267 13.7701L5.9544 12.2709M10.5462 18.5035L7.67493 16.4278" stroke="black" stroke-width="1.41633" stroke-linecap="round" stroke-linejoin="round"/>
<path d="M23.8129 15.3247C25.2628 10.9377 27.6066 1.88954 25.3819 0.793274C24.3256 0.272747 22.9556 2.63975 21.6441 5.91105C21.1071 7.25058 20.58 8.74174 20.0881 10.2484C19.8214 11.0654 19.5652 11.8869 19.3233 12.6913C18.9694 13.8687 18.6465 15.0093 18.3674 16.045C18.239 16.5215 18.1198 16.9757 18.0112 17.4012L21.7223 21.2852L23.8129 15.3247Z" fill="#E9C46A"/>
<path d="M21.6441 5.91105C22.9556 2.63975 24.3256 0.272747 25.3819 0.793274C27.6066 1.88954 25.2628 10.9377 23.8129 15.3247L21.7223 21.2852L18.0112 17.4012C18.1198 16.9757 18.239 16.5215 18.3674 16.045M21.6441 5.91105C21.7288 5.70128 24.7518 4.93308 24.1168 6.42104C23.6088 7.61141 21.2193 9.46858 20.0881 10.2484M21.6441 5.91105C21.1071 7.25058 20.58 8.74174 20.0881 10.2484M20.0881 10.2484C19.8214 11.0654 19.5652 11.8869 19.3233 12.6913M19.3233 12.6913C20.3046 12.3505 22.1019 11.9738 21.4413 13.1934C20.7807 14.413 19.1168 15.6026 18.3674 16.045M19.3233 12.6913C18.9694 13.8687 18.6465 15.0093 18.3674 16.045" stroke="black" stroke-width="1.41633"/>
<path d="M8.25478 18.0847L6.11316 16.8099L7.28681 23.4586L6.84497 29.3497L6.11316 33.3873H22.78L21.6338 24.112L22.78 16.8099L20.591 18.0847L18.526 16.492L16.4609 18.0847L14.3958 16.492L12.3307 18.0847L10.3482 16.492L8.25478 18.0847Z" fill="#E3D39C" stroke="black" stroke-width="1.41633" stroke-linejoin="round"/>
</svg>
