<svg width="182" height="215" viewBox="0 0 182 215" fill="none" xmlns="http://www.w3.org/2000/svg">
<path d="M81.8108 44.3799V131.864H129.138C129.258 102.703 129.425 43.8063 129.138 41.5116C128.78 38.6432 122.684 30.0382 119.099 25.7357C116.231 22.2938 115.514 10.916 115.514 5.65741H96.511C95.7939 9.95991 94.0012 19.9991 92.567 25.7357C91.1328 31.4724 84.7986 40.5555 81.8108 44.3799Z" fill="#2A9D8F"/>
<path d="M96.511 5.65741C95.7939 9.95991 94.0012 19.9991 92.567 25.7357C91.1328 31.4724 84.7986 40.5555 81.8108 44.3799V131.864H129.138C129.258 102.703 129.425 43.8063 129.138 41.5116C128.78 38.6432 122.684 30.0382 119.099 25.7357C116.231 22.2938 115.514 10.916 115.514 5.65741M96.511 5.65741H115.514M96.511 5.65741C96.511 5.65741 92.6548 5.65741 90.1839 5.65741M115.514 5.65741H121.572" stroke="black" stroke-width="10" stroke-linecap="round" stroke-linejoin="round"/>
<path d="M36.2211 90.0715C37.133 105.076 62.4956 119.998 75.0629 125.584C76.6571 125.185 78.7423 124.548 81.0308 123.685C87.5032 121.243 95.6025 116.991 98.8252 111.195C104.278 101.388 96.261 82.3553 92.6779 73.4163C89.8114 66.2651 83.6355 66.1242 80.9059 66.9476C80.5104 62.6371 78.7447 52.2403 74.8459 45.1371C70.9472 38.0338 63.2014 40.6528 59.8159 42.8502C56.2304 34.2098 46.3857 17.919 35.6913 21.8791C24.9968 25.8392 31.2242 42.8354 35.6748 50.8385C34.6114 49.3952 31.2248 48.1495 26.1849 54.7128C21.145 61.2761 34.1131 75.8891 41.2271 82.3753C39.5138 81.5592 36.114 81.9561 36.2211 90.0715Z" fill="#E76F51"/>
<path d="M81.0308 123.685C87.5032 121.243 95.6025 116.991 98.8252 111.195C104.278 101.388 96.261 82.3553 92.6779 73.4163C89.8114 66.2651 83.6355 66.1242 80.9059 66.9476C80.5104 62.6371 78.7447 52.2403 74.8459 45.1371C70.9472 38.0338 63.2014 40.6528 59.8159 42.8501C56.2304 34.2098 46.3857 17.919 35.6913 21.8791C24.9968 25.8392 31.2242 42.8354 35.6748 50.8385C34.6114 49.3952 31.2248 48.1495 26.1849 54.7128C21.145 61.2761 34.1131 75.8891 41.2271 82.3753C39.5138 81.5592 36.114 81.9561 36.2211 90.0715C37.133 105.076 62.4956 119.998 75.0629 125.584C76.6571 125.185 78.7423 124.548 81.0308 123.685ZM81.0308 123.685L73.6793 106.317M48.1814 46.0777L59.5332 72.8964M62.6944 80.3648L59.5332 72.8964M62.6944 80.3648L73.6793 106.317M62.6944 80.3648L65.1895 66.9477L67.6847 53.5305M59.5332 72.8964L41.2587 62.3116M73.6793 106.317L53.4065 91.6611" stroke="black" stroke-width="10" stroke-linecap="round" stroke-linejoin="round"/>
<path d="M155.921 96.3474C165.6 73.2163 181.453 25.5777 167.433 20.072C160.776 17.4579 151.819 30.0005 143.139 47.2732C139.584 54.346 136.076 62.212 132.791 70.1551C131.01 74.4625 129.294 78.7927 127.672 83.0314C125.298 89.2355 123.125 95.2437 121.242 100.698C120.375 103.207 119.57 105.599 118.835 107.839L142.004 127.788L155.921 96.3474Z" fill="#E9C46A"/>
<path d="M143.139 47.2732C151.819 30.0005 160.776 17.4579 167.433 20.072C181.453 25.5777 165.6 73.2163 155.921 96.3474L142.004 127.788L118.835 107.839C119.57 105.599 120.375 103.207 121.242 100.698M143.139 47.2732C143.699 46.1655 162.99 41.8213 158.797 49.6819C155.442 55.9704 140.062 65.9509 132.791 70.1551M143.139 47.2732C139.584 54.346 136.076 62.212 132.791 70.1551M132.791 70.1551C131.01 74.4625 129.294 78.7927 127.672 83.0314M127.672 83.0314C133.943 81.1423 145.404 78.9785 141.077 85.4362C136.75 91.8939 126.05 98.3014 121.242 100.698M127.672 83.0314C125.298 89.2355 123.125 95.2437 121.242 100.698" stroke="black" stroke-width="10"/>
<path d="M27.1191 65.7843V209.693H171.805V65.7843L152.802 76.8504L134.875 63.0241L116.948 76.8504L99.0208 63.0241L81.0937 76.8504L63.8837 63.0241L45.7106 76.8504L27.1191 65.7843Z" fill="#E3D39C" stroke="black" stroke-width="10" stroke-linejoin="round"/>
</svg>
